<?xml version="1.0" encoding="UTF-8" standalone="no"?>
<!-- Uploaded to: SVG Repo, www.svgrepo.com, Generator: SVG Repo Mixer Tools -->

<svg
   width="800px"
   height="800px"
   viewBox="0 0 24 24"
   fill="none"
   version="1.1"
   id="svg1"
   sodipodi:docname="cart-add-2.svg"
   inkscape:version="1.3.2 (091e20e, 2023-11-25, custom)"
   xmlns:inkscape="http://www.inkscape.org/namespaces/inkscape"
   xmlns:sodipodi="http://sodipodi.sourceforge.net/DTD/sodipodi-0.dtd"
   xmlns="http://www.w3.org/2000/svg"
   xmlns:svg="http://www.w3.org/2000/svg">
  <defs
     id="defs1" />
  <sodipodi:namedview
     id="namedview1"
     pagecolor="#505050"
     bordercolor="#ffffff"
     borderopacity="1"
     inkscape:showpageshadow="0"
     inkscape:pageopacity="0"
     inkscape:pagecheckerboard="1"
     inkscape:deskcolor="#505050"
     inkscape:zoom="1.47625"
     inkscape:cx="400"
     inkscape:cy="408.8061"
     inkscape:window-width="2560"
     inkscape:window-height="1377"
     inkscape:window-x="-8"
     inkscape:window-y="879"
     inkscape:window-maximized="1"
     inkscape:current-layer="svg1" />
  <path
     d="m 21,5 -2,7 H 7.37671 M 20,16 H 8 L 6,3 H 3 M 16,5.5 H 14.42845 13.5 m 0,0 H 11 m 2.5,0 V 8 m 0,-2.5 V 3 M 9,20 c 0,0.5523 -0.44772,1 -1,1 -0.55228,0 -1,-0.4477 -1,-1 0,-0.5523 0.44772,-1 1,-1 0.55228,0 1,0.4477 1,1 z m 11,0 c 0,0.5523 -0.4477,1 -1,1 -0.5523,0 -1,-0.4477 -1,-1 0,-0.5523 0.4477,-1 1,-1 0.5523,0 1,0.4477 1,1 z"
     stroke="#000000"
     stroke-width="2"
     stroke-linecap="round"
     stroke-linejoin="round"
     id="path1"
     sodipodi:nodetypes="ccccccccccccccccssssssssss"
     style="fill:none;fill-opacity:1;stroke:#ffffff;stroke-opacity:1" />
</svg>
