<?xml version="1.0" encoding="UTF-8" standalone="no"?>
<!-- Uploaded to: SVG Repo, www.svgrepo.com, Generator: SVG Repo Mixer Tools -->

<svg
   width="1000"
   height="800"
   viewBox="0 0 30 24"
   fill="none"
   version="1.1"
   id="svg2"
   sodipodi:docname="login.svg"
   inkscape:version="1.3.2 (091e20e, 2023-11-25, custom)"
   xmlns:inkscape="http://www.inkscape.org/namespaces/inkscape"
   xmlns:sodipodi="http://sodipodi.sourceforge.net/DTD/sodipodi-0.dtd"
   xmlns="http://www.w3.org/2000/svg"
   xmlns:svg="http://www.w3.org/2000/svg">
  <defs
     id="defs2" />
  <sodipodi:namedview
     id="namedview2"
     pagecolor="#505050"
     bordercolor="#ffffff"
     borderopacity="1"
     inkscape:showpageshadow="0"
     inkscape:pageopacity="0"
     inkscape:pagecheckerboard="1"
     inkscape:deskcolor="#505050"
     inkscape:zoom="0.3690625"
     inkscape:cx="403.72566"
     inkscape:cy="621.84589"
     inkscape:window-width="2560"
     inkscape:window-height="1377"
     inkscape:window-x="-8"
     inkscape:window-y="879"
     inkscape:window-maximized="1"
     inkscape:current-layer="svg2" />
  <path
     d="M 13,2 C 10.2386,2 8,4.23858 8,7 8,7.55228 8.44772,8 9,8 9.55228,8 10,7.55228 10,7 10,5.34315 11.3431,4 13,4 h 4 c 1.6569,0 3,1.34315 3,3 v 10 c 0,1.6569 -1.3431,3 -3,3 h -4 c -1.6569,0 -3,-1.3431 -3,-3 0,-0.5523 -0.44772,-1 -1,-1 -0.55228,0 -1,0.4477 -1,1 0,2.7614 2.2386,5 5,5 h 4 c 2.7614,0 5,-2.2386 5,-5 V 7 C 22,4.23858 19.7614,2 17,2 Z"
     fill="#000000"
     id="path1" />
  <path
     d="m 3,11 c -0.55228,0 -1,0.4477 -1,1 0,0.5523 0.44772,1 1,1 h 8.2821 c -0.089,0.1098 -0.1743,0.2163 -0.255,0.318 -0.2455,0.3097 -0.4533,0.5816 -0.6001,0.7765 -0.0734,0.0976 -0.1318,0.176 -0.172,0.2306 l -0.0466,0.0633 -0.0125,0.0171 -0.0044,0.006 C 10.1914,14.4116 10.191,14.4122 11,15 l -0.8085,-0.5885 c -0.32463,0.4468 -0.22609,1.0729 0.2207,1.3975 0.4468,0.3246 1.0721,0.2256 1.3968,-0.2211 l 0.0028,-0.0039 0.0102,-0.014 0.0418,-0.0568 c 0.0369,-0.05 0.0915,-0.1235 0.1609,-0.2157 0.139,-0.1845 0.3365,-0.4429 0.5695,-0.7369 0.4713,-0.5943 1.0681,-1.3087 1.6129,-1.8535 L 14.9142,12 14.2071,11.2929 C 13.6623,10.7481 13.0655,10.0337 12.5942,9.43937 12.3612,9.14542 12.1637,8.88702 12.0247,8.7025 11.9553,8.61033 11.9007,8.53682 11.8638,8.48679 L 11.822,8.43002 11.8118,8.41602 11.8095,8.41281 C 11.4848,7.96606 10.859,7.86637 10.4122,8.19098 9.96541,8.51561 9.86636,9.14098 10.191,9.58778 L 11,9 c -0.809,0.58778 -0.8091,0.58773 -0.809,0.58778 l 0.0015,0.00207 0.0034,0.00469 0.0125,0.01708 0.0466,0.0633 c 0.0402,0.05454 0.0986,0.13303 0.172,0.23057 0.1468,0.19491 0.3546,0.46681 0.6001,0.77651 0.0807,0.1017 0.166,0.2082 0.255,0.318 z"
     fill="#000000"
     id="path2" />
</svg>
