<?xml version="1.0" encoding="UTF-8" standalone="no"?>
<!-- Created with Inkscape (http://www.inkscape.org/) -->

<svg
   width="27.029629mm"
   height="27.029037mm"
   viewBox="0 0 27.029629 27.029037"
   version="1.1"
   id="svg1"
   inkscape:version="1.3.2 (091e20e, 2023-11-25, custom)"
   sodipodi:docname="icon.svg"
   xmlns:inkscape="http://www.inkscape.org/namespaces/inkscape"
   xmlns:sodipodi="http://sodipodi.sourceforge.net/DTD/sodipodi-0.dtd"
   xmlns:xlink="http://www.w3.org/1999/xlink"
   xmlns="http://www.w3.org/2000/svg"
   xmlns:svg="http://www.w3.org/2000/svg">
  <sodipodi:namedview
     id="namedview1"
     pagecolor="#505050"
     bordercolor="#ffffff"
     borderopacity="1"
     inkscape:showpageshadow="0"
     inkscape:pageopacity="0"
     inkscape:pagecheckerboard="1"
     inkscape:deskcolor="#505050"
     inkscape:document-units="mm"
     inkscape:zoom="1.0520974"
     inkscape:cx="103.60258"
     inkscape:cy="-68.909972"
     inkscape:window-width="2560"
     inkscape:window-height="1377"
     inkscape:window-x="-8"
     inkscape:window-y="879"
     inkscape:window-maximized="1"
     inkscape:current-layer="layer1" />
  <defs
     id="defs1">
    <linearGradient
       inkscape:collect="always"
       xlink:href="#linearGradient76"
       id="linearGradient77"
       x1="8.1539154"
       y1="19.894047"
       x2="33.483906"
       y2="20.045044"
       gradientUnits="userSpaceOnUse"
       gradientTransform="translate(71.7875,80.254132)" />
    <linearGradient
       id="linearGradient76"
       inkscape:collect="always">
      <stop
         style="stop-color:#0a0f1e;stop-opacity:1;"
         offset="0"
         id="stop76" />
      <stop
         style="stop-color:#14a1ff;stop-opacity:1;"
         offset="1"
         id="stop77" />
    </linearGradient>
  </defs>
  <g
     inkscape:label="Warstwa 1"
     inkscape:groupmode="layer"
     id="layer1"
     transform="translate(-77.787496,-86.254167)">
    <path
       id="rect5"
       style="fill:url(#linearGradient77);fill-opacity:1;stroke:#397daf;stroke-width:1.01309;stroke-linejoin:bevel;stroke-opacity:0"
       d="m 81.292828,86.760712 c -1.644945,0 -2.969327,1.324382 -2.969327,2.969327 v 5.475118 c -0.01727,0.127678 -0.02946,0.257076 -0.02946,0.389641 v 5.16e-4 h 0.02946 v 14.183116 c 0,1.64494 1.324382,2.96933 2.969327,2.96933 h 2.455664 v 5.1e-4 h 2.441712 c 1.84e-4,-1.6e-4 3.33e-4,-3.5e-4 5.17e-4,-5.1e-4 h 3.421496 v 0.003 c 0.01237,-9.5e-4 0.02459,-0.002 0.03721,-0.002 h 1.588017 c 7.14e-4,-3.1e-4 0.0014,-7.3e-4 0.0021,-0.001 h 4.236951 v 0.0289 c 0.131345,-3e-5 0.259465,-0.012 0.386023,-0.0289 h 5.478732 c 1.64495,0 2.96933,-1.32439 2.96933,-2.96933 V 89.730039 c 0,-1.644945 -1.32438,-2.969327 -2.96933,-2.969327 z m 1.275892,2.688724 h 17.49661 c 0.86236,0 1.55649,0.694129 1.55649,1.556495 v 17.496609 c 0,0.86236 -0.69413,1.55649 -1.55649,1.55649 h -1.732715 c 0.0024,-0.0486 0.0072,-0.0965 0.0072,-0.14573 V 95.594798 c 0,-1.586451 -1.277459,-2.863391 -2.863908,-2.863391 H 81.157953 c -0.04922,0 -0.09713,0.0048 -0.145728,0.0072 v -1.73271 c 0,-0.862366 0.694129,-1.556495 1.556495,-1.556495 z m 0.634586,6.145362 h 10.227283 c 1.133177,0 2.045353,0.912176 2.045353,2.045353 v 7.086389 c 2.5e-5,0.003 5.17e-4,0.007 5.17e-4,0.01 v 5.32267 h -3.000334 v -9.41854 c 0,-1.133179 -0.912177,-2.045358 -2.045353,-2.045358 h -9.418547 v -2.999817 h 2.181263 c 0.0033,-1.6e-5 0.0065,-5.16e-4 0.0098,-5.16e-4 z m -0.954464,5.905062 h 6.13606 c 0.679902,0 1.227315,0.54742 1.227315,1.22732 v 6.13657 c 0,0.0147 -0.0016,0.0289 -0.0021,0.0434 3.48e-4,0.007 0.0021,0.014 0.0021,0.0212 v 1.13068 H 86.6124 v -4.37285 c 0,-0.67991 -0.547414,-1.22732 -1.227315,-1.22732 h -4.37286 v -2.95848 h 1.226799 c 0.0033,-2e-5 0.0065,-5.1e-4 0.0098,-5.1e-4 z m -0.954463,5.8229 h 2.045353 c 0.226636,0 0.40876,0.18213 0.40876,0.40876 v 1.17099 0.87437 0.28215 H 82.56872 c -0.862366,0 -1.556495,-0.69413 -1.556495,-1.55649 v -1.17926 h 0.276986 c 0.0018,-2e-5 0.0034,-5.2e-4 0.0052,-5.2e-4 z" />
  </g>
</svg>
