<?xml version="1.0" encoding="UTF-8" standalone="no"?>
<!-- Created with Inkscape (http://www.inkscape.org/) -->

<svg
   width="198mm"
   height="30.028999mm"
   viewBox="0 0 198 30.028999"
   version="1.1"
   id="svg1"
   inkscape:version="1.3.2 (091e20e, 2023-11-25, custom)"
   sodipodi:docname="logo.svg"
   xmlns:inkscape="http://www.inkscape.org/namespaces/inkscape"
   xmlns:sodipodi="http://sodipodi.sourceforge.net/DTD/sodipodi-0.dtd"
   xmlns:xlink="http://www.w3.org/1999/xlink"
   xmlns="http://www.w3.org/2000/svg"
   xmlns:svg="http://www.w3.org/2000/svg">
  <sodipodi:namedview
     id="namedview1"
     pagecolor="#505050"
     bordercolor="#ffffff"
     borderopacity="1"
     inkscape:showpageshadow="0"
     inkscape:pageopacity="0"
     inkscape:pagecheckerboard="1"
     inkscape:deskcolor="#505050"
     inkscape:document-units="mm"
     inkscape:zoom="0.61950528"
     inkscape:cx="-62.953459"
     inkscape:cy="-66.988937"
     inkscape:window-width="2560"
     inkscape:window-height="1377"
     inkscape:window-x="-8"
     inkscape:window-y="879"
     inkscape:window-maximized="1"
     inkscape:current-layer="layer1"
     showguides="true" />
  <defs
     id="defs1">
    <linearGradient
       id="linearGradient76"
       inkscape:collect="always">
      <stop
         style="stop-color:#0a0f1e;stop-opacity:1;"
         offset="0"
         id="stop76" />
      <stop
         style="stop-color:#14a1ff;stop-opacity:1;"
         offset="1"
         id="stop77" />
    </linearGradient>
    <rect
       x="309.83466"
       y="334.70209"
       width="200.95567"
       height="155.25339"
       id="rect21" />
    <rect
       x="411.99271"
       y="434.84387"
       width="75.946457"
       height="148.53246"
       id="rect20" />
    <linearGradient
       inkscape:collect="always"
       xlink:href="#linearGradient76"
       id="linearGradient77"
       x1="8.1539154"
       y1="19.894047"
       x2="33.483906"
       y2="20.045044"
       gradientUnits="userSpaceOnUse" />
  </defs>
  <g
     inkscape:label="Warstwa 1"
     inkscape:groupmode="layer"
     id="layer1"
     transform="translate(-5.9999996,-2.9999964)">
    <text
       xml:space="preserve"
       style="font-style:normal;font-variant:normal;font-weight:normal;font-stretch:normal;font-size:8.46667px;font-family:Gadugi;-inkscape-font-specification:Gadugi;white-space:pre;inline-size:18.5775;fill:#000000;stroke-width:0.264583"
       x="83.994919"
       y="116.43607"
       id="text19"><tspan
         x="83.994919"
         y="116.43607"
         id="tspan7"><tspan
           dx="0 4.4359069 4.4276385 3.9108744 4.791441 7.9085636 4.9609394 2.9434891 2.0505219"
           id="tspan6">TechWorld</tspan></tspan></text>
    <text
       xml:space="preserve"
       transform="scale(0.26458333)"
       id="text20"
       style="font-style:normal;font-variant:normal;font-weight:normal;font-stretch:normal;font-size:32px;font-family:Gadugi;-inkscape-font-specification:Gadugi;white-space:pre;shape-inside:url(#rect20);fill:#000000" />
    <text
       xml:space="preserve"
       transform="matrix(1.1288189,0,0,1.15454,-314.5578,-386.67074)"
       id="text21"
       style="font-style:normal;font-variant:normal;font-weight:normal;font-stretch:normal;font-size:32px;font-family:'Microsoft YaHei UI';-inkscape-font-specification:'Microsoft YaHei UI';white-space:pre;shape-inside:url(#rect21);fill:#3779ac;fill-opacity:1"><tspan
         x="309.83398"
         y="363.08981"
         id="tspan10"><tspan
           style="fill:#0a0f1e"
           id="tspan8">tech</tspan><tspan
           style="fill:#23a6ff"
           id="tspan9">world</tspan></tspan></text>
    <path
       style="opacity:1;fill:#387bae;fill-opacity:0;stroke:#397daf;stroke-width:1;stroke-linecap:butt;stroke-linejoin:bevel;stroke-dasharray:none;stroke-dashoffset:0;stroke-opacity:0;paint-order:normal"
       d="m 27.411516,19.049746 c -14.660515,2.152305 1.194538,-3.960838 1.194538,-3.960838 L 28.417443,19.961367 29.95777,29.674852 8.8961683,9.2733914 28.386008,15.246084 Z"
       id="path42"
       sodipodi:nodetypes="ccccccc" />
    <path
       id="rect5"
       style="fill:url(#linearGradient77);fill-opacity:1;stroke:#397daf;stroke-width:1.01309;stroke-linejoin:bevel;stroke-opacity:0"
       d="m 9.5053284,6.5065796 c -1.6449454,0 -2.9693278,1.3243824 -2.9693278,2.9693278 v 5.4751176 c -0.017274,0.127678 -0.029456,0.257076 -0.029456,0.389641 v 5.16e-4 h 0.029456 v 14.183114 c 0,1.644945 1.3243824,2.969328 2.9693278,2.969328 h 2.4556636 v 5.17e-4 h 2.441712 c 1.84e-4,-1.6e-4 3.33e-4,-3.57e-4 5.17e-4,-5.17e-4 h 3.421496 v 0.0031 c 0.01237,-9.45e-4 0.02459,-0.0021 0.03721,-0.0021 h 1.588017 c 7.14e-4,-3.05e-4 0.0014,-7.27e-4 0.0021,-0.001 h 4.236951 v 0.02894 c 0.131345,-2.4e-5 0.259465,-0.01196 0.386023,-0.02894 h 5.478735 c 1.644945,0 2.969328,-1.324383 2.969328,-2.969328 V 9.4759074 c 0,-1.6449454 -1.324383,-2.9693278 -2.969328,-2.9693278 z M 10.78122,9.1953044 h 17.496606 c 0.862364,0 1.556494,0.6941289 1.556494,1.5564946 v 17.496606 c 0,0.862364 -0.69413,1.556494 -1.556494,1.556494 h -1.732711 c 0.0024,-0.04859 0.0072,-0.09651 0.0072,-0.145727 V 15.340666 c 0,-1.586451 -1.277459,-2.863391 -2.863908,-2.863391 H 9.3704529 c -0.049224,0 -0.097128,0.0048 -0.1457275,0.0072 v -1.73271 c 0,-0.8623657 0.6941289,-1.5564946 1.5564946,-1.5564946 z m 0.634586,6.1453616 h 10.227283 c 1.133177,0 2.045353,0.912176 2.045353,2.045353 v 7.086389 c 2.5e-5,0.0033 5.17e-4,0.0065 5.17e-4,0.0098 v 5.322672 h -3.000334 v -9.418546 c 0,-1.133175 -0.912177,-2.045354 -2.045353,-2.045354 H 9.2247254 v -2.999817 h 2.1812626 c 0.0033,-1.6e-5 0.0065,-5.16e-4 0.0098,-5.16e-4 z m -0.954464,5.905066 h 6.13606 c 0.679902,0 1.227315,0.547411 1.227315,1.227315 v 6.136576 c 0,0.01469 -0.0016,0.02885 -0.0021,0.04341 3.48e-4,0.0071 0.0021,0.01402 0.0021,0.02119 v 1.13068 H 14.8249 v -4.37286 c 0,-0.679904 -0.547414,-1.227315 -1.227315,-1.227315 H 9.2247254 v -2.958476 h 1.2267986 c 0.0033,-2.6e-5 0.0065,-5.16e-4 0.0098,-5.16e-4 z m -0.9544633,5.8229 h 2.0453533 c 0.226636,0 0.40876,0.182125 0.40876,0.408761 v 1.170988 0.874365 0.282153 H 10.78122 c -0.8623657,0 -1.5564946,-0.69413 -1.5564946,-1.556494 V 27.069149 H 9.501711 c 0.00177,-2.2e-5 0.0034,-5.17e-4 0.00517,-5.17e-4 z" />
  </g>
</svg>
